<?xml version="1.0" standalone="no"?>
<!DOCTYPE svg PUBLIC "-//W3C//DTD SVG 20010904//EN"
"http://www.w3.org/TR/2001/REC-SVG-20010904/DTD/svg10.dtd">
<svg version="1.0" xmlns="http://www.w3.org/2000/svg" width="499.000000pt" height="499.000000pt" viewBox="0 0 499.000000 499.000000" preserveAspectRatio="xMidYMid meet">
<g transform="translate(0.000000,499.000000) scale(0.100000,-0.100000)"
fill="#000000" stroke="none">
<path d="M300 3370 l0 -70 150 0 c125 0 158 -3 203 -20 91 -34 127 -93 127
-207 0 -80 -23 -137 -69 -176 -43 -36 -86 -47 -213 -54 l-108 -6 0 -93 0 -93
-42 -3 -43 -3 0 -70 c0 -67 1 -69 25 -70 14 -1 123 -2 243 -3 l217 -2 1 -137
c0 -132 1 -137 17 -113 9 14 35 43 57 66 90 88 262 97 375 19 42 -29 90 -109
90 -149 0 -25 -3 -26 -53 -26 -51 0 -52 1 -72 41 -29 60 -73 81 -156 76 -122
-8 -163 -62 -163 -217 -1 -113 13 -158 59 -199 39 -34 86 -46 152 -38 51 5 88
29 121 77 43 64 36 70 -88 70 l-110 0 0 45 0 45 170 0 170 0 0 -170 0 -170
-60 0 -60 0 0 45 c0 48 -23 64 -35 25 -4 -12 -25 -33 -48 -48 -35 -23 -50 -27
-116 -27 -58 0 -86 6 -117 22 -38 20 -94 75 -121 119 -9 15 -12 -10 -12 -128
l-1 -148 1950 0 1950 0 0 140 0 141 -52 -54 c-72 -72 -125 -87 -316 -87 l-142
0 0 331 0 331 163 -4 c193 -5 242 -21 307 -97 l40 -46 0 143 0 142 -790 0
-790 0 0 65 0 65 -45 0 -45 0 0 99 0 99 -53 4 c-29 1 -89 2 -135 0 l-82 -4 0
-99 0 -99 -60 0 -60 0 0 325 0 325 153 0 c175 0 237 -13 292 -61 l34 -30 3 38
c2 21 2 73 0 116 l-4 77 -1404 0 -1404 0 0 -70z m923 -198 c21 -70 65 -215 97
-322 33 -107 60 -196 60 -198 0 -2 -28 -2 -62 0 l-62 3 -18 63 -19 63 -131 -3
-131 -3 -17 -60 -17 -60 -63 -3 c-56 -3 -62 -1 -58 15 3 10 47 156 98 326 l93
307 96 0 96 0 38 -128z m628 108 c97 -36 130 -90 130 -206 0 -103 -30 -162
-100 -198 -37 -20 -139 -36 -223 -36 l-68 0 0 -95 0 -95 -55 0 -55 0 0 325 0
325 160 0 c134 0 168 -3 211 -20z m659 -35 l0 -55 -150 0 -150 0 0 -80 0 -80
120 0 120 0 0 -50 0 -50 -120 0 -120 0 0 -90 0 -90 150 0 150 0 0 -50 0 -50
-210 0 -210 0 0 325 0 325 210 0 210 0 0 -55z m41 -887 c69 -32 115 -79 148
-148 23 -48 26 -68 26 -160 0 -99 -2 -110 -33 -172 -56 -114 -143 -164 -282
-162 -134 1 -219 50 -273 156 -82 162 -38 380 93 463 95 60 222 69 321 23z
m-701 2 c89 -33 129 -93 130 -191 0 -91 -53 -149 -152 -164 -73 -11 -38 -25
62 -25 l100 0 0 -130 0 -130 -60 0 -60 0 0 105 0 105 -135 0 -135 0 0 -105 0
-105 -60 0 -60 0 0 331 0 331 168 -4 c100 -3 181 -10 202 -18z m1090 -215 c0
-264 4 -285 65 -311 44 -18 146 -18 191 1 58 24 64 51 64 315 l0 230 60 0 60
0 0 -225 c0 -259 -7 -307 -56 -363 -49 -57 -106 -77 -224 -77 -118 0 -175 20
-224 77 -49 56 -56 104 -56 363 l0 225 60 0 60 0 0 -235z m822 20 c79 -118
149 -215 156 -215 9 0 12 50 12 215 l0 215 60 0 60 0 0 -330 0 -330 -62 1 -63
1 -140 211 c-77 116 -146 212 -152 215 -10 3 -13 -44 -13 -212 l0 -216 -60 0
-60 0 0 330 0 330 60 0 60 0 142 -215z"/>
<path d="M1034 3038 l-40 -143 89 -3 c49 -1 92 0 95 3 10 10 -74 280 -89 283
-10 2 -25 -37 -55 -140z"/>
<path d="M1592 3073 l3 -118 107 0 c104 0 108 1 135 28 25 24 28 35 28 93 0
60 -3 68 -28 90 -26 22 -36 24 -138 24 l-110 0 3 -117z"/>
<path d="M2344 2273 c-12 -2 -40 -20 -63 -39 -91 -78 -96 -277 -8 -362 73 -71
216 -71 285 0 75 78 78 269 4 352 -40 44 -134 66 -218 49z"/>
<path d="M1600 2155 l0 -115 89 0 c140 0 170 19 171 108 0 99 -32 122 -170
122 l-90 0 0 -115z"/>
<path d="M390 3070 l0 -120 99 0 c85 0 102 3 131 23 40 26 55 71 45 134 -10
70 -36 83 -166 83 l-109 0 0 -120z"/>
<path d="M2750 3075 l0 -115 78 0 c144 0 182 24 182 118 0 46 -4 58 -29 83
-29 28 -32 29 -130 29 l-101 0 0 -115z"/>
<path d="M3086 2971 c-18 -20 -79 -41 -120 -41 -16 0 -26 -5 -26 -15 0 -12 16
-15 84 -15 l84 0 4 41 c4 47 -3 56 -26 30z"/>
<path d="M4290 2050 l0 -220 93 0 c174 1 211 40 211 220 -1 181 -39 220 -214
220 l-90 0 0 -220z"/>
</g>
</svg>
